<svg height='100px' width='100px'  fill="#607088" xmlns="http://www.w3.org/2000/svg" xmlns:xlink="http://www.w3.org/1999/xlink" version="1.1" x="0px" y="0px" viewBox="0 0 128 128" style="enable-background:new 0 0 128 128;" xml:space="preserve"><path d="M51.6073952,24.8104992c-0.6571999-0.8885994-1.9091988-1.0731983-2.7972984-0.4179001  c-5.9960976,4.4385014-15.3780022,9.7255993-26.0235004,9.7255993c-0.0220013,0-0.0454006,0-0.0683002,0  c-1.2343998,0-2.4013996,0.467701-3.2901001,1.3183022c-0.9120998,0.8740005-1.4193993,2.0419998-1.4277,3.2870979  c-0.0044003,0.5839996-0.0517998,14.4766006,5.0244007,30.1407051c3.4208984,10.5625,8.395998,19.4725952,14.7871037,26.4833984  C38.2064972,95.7802963,38.7475967,96,39.2904968,96c0.480999,0,0.963398-0.1728973,1.3471985-0.5224991  c0.8158989-0.7441025,0.8745003-2.0086975,0.1304016-2.8252029c-6.0044022-6.5858994-10.6939011-15.0038986-13.9375019-25.0205002  c-4.8794003-15.0555992-4.8344994-28.3202972-4.8300991-28.8788986c0.0015049-0.2108994,0.1225033-0.3583984,0.1947994-0.4277  c0.0811005-0.077198,0.2564011-0.2070007,0.5352001-0.2070007c0.0146008,0.0009003,0.028801,0.0009003,0.0438995,0  c11.7476044,0,21.9356041-5.7138977,28.4155006-10.5107975C52.0775948,26.9501991,52.264595,25.6982002,51.6073952,24.8104992z"></path><path d="M63.9403954,1.2842C63.2255936,0.4902,62.1996956,0.0264,61.1117935,0.002C61.0702934,0,61.0282936,0,60.9867935,0  c-1.0205002,0-2.0360985,0.4336-2.7543983,1.166c-0.2137985,0.2168-21.5483017,21.6728992-48.0756989,21.6728992  c-0.6859999,0-1.3711004-0.0146999-2.0639-0.0439987c-0.0640001-0.0029011-0.1284003-0.0049-0.1919003-0.0049  c-2.0313001,0-3.7353997,1.5693989-3.8344998,3.5634995c-0.0395002,0.8095989-0.9263,20.0429993,5.1972995,42.1718979  c8.2279997,29.7412033,25.3148994,50.2217026,49.4140015,59.2256012C59.1215935,127.9169998,59.594696,128,60.0634956,128  c0.3339996,0,0.6610985-0.0400009,0.9857979-0.125c0.554203-0.1416016,13.1112976-3.4746017,26.3510971-16.1787033  c-1.6542969-0.2118988-3.2733917-0.5341949-4.8500977-0.9638977c-11.719696,10.4141006-22.372097,13.2373047-22.4726982,13.2714996  c-22.8480988-8.5361023-39.0863991-28.089798-46.9589005-56.544899c-5.6363001-20.3691978-5.1612-38.2734985-5.0678997-40.6621017  c0.6976995,0.0272999,1.4052992,0.0419998,2.1058998,0.0419998c27.6338005,0,49.2983971-21.2314987,50.8715973-22.8115997  c17.0863991,18.9092007,50.5440025,24.2520008,52.9668007,24.6152992  c-0.1327972,6.3896008-0.5830002,12.3476009-1.2850952,17.9120998c1.264595,0.8935013,2.4813919,1.8691025,3.6371918,2.9326019  c0.9184036-6.4599991,1.5038986-13.4403992,1.6518097-21.0068016c0.0361938-1.8848-1.3828049-3.5058994-3.3076096-3.7783985  C114.3524933,24.6553001,80.5106964,19.6952991,63.9403954,1.2842z"></path><path d="M124,76.0009995C124.0019989,58.3291016,109.6732941,44,92.0033951,44C92.0023956,44,92.0009995,44,92,44  c-17.6733093-0.0009995-32,14.3270988-32,32c0,17.6718979,14.3236923,32,32,32C109.6713943,108,124,93.6718979,124,76.0009995z   M112.6898956,93.8603973l-3.8568954-3.8544998c-0.780304-0.7783966-2.0469055-0.7792969-2.8281097,0.0009003  c-0.7807999,0.7813034-0.7802963,2.047905,0.0009995,2.8291016l3.8569031,3.8544998  c0.1635971,0.1631012,0.3510971,0.2842026,0.5477982,0.3788986c-4.4847946,3.9239044-10.2254944,6.440506-16.5340958,6.860405  C93.9516907,103.7197037,94,103.4961014,94,103.2598038v-5.4512024c0-1.1044998-0.8955078-2-2-2c-1.1045074,0-2,0.8955002-2,2  v5.4512024c0,0.2362976,0.0482941,0.4598999,0.123497,0.669899c-6.3086014-0.419899-12.0493011-2.9365005-16.5341034-6.860405  c0.1972046-0.094696,0.3852005-0.2157974,0.5487976-0.3797989l3.8550034-3.8564987  c0.7807007-0.7811966,0.7807007-2.0477982-0.0005035-2.8281021c-0.7812958-0.7802963-2.0473938-0.7802963-2.828598,0  l-3.8549957,3.8563995c-0.1636047,0.1631012-0.2847061,0.3516006-0.3794022,0.547905  c-3.9234009-4.4844055-6.4400024-10.2246017-6.8599014-16.5332031C64.2802963,77.9512024,64.503891,78,64.7406921,78h5.4512024  c1.1044998,0,2-0.8955002,2-2s-0.8955002-2-2-2h-5.4512024c-0.2368011,0-0.4608994,0.0487976-0.6713943,0.1240005  c0.4042969-6.1503983,2.7910995-11.9121017,6.8535995-16.5469017c0.0956955,0.2022018,0.219696,0.3955994,0.3871994,0.5625  l3.8559036,3.8535995c0.3901978,0.3896027,0.9018936,0.5848999,1.4135971,0.5848999  c0.5121994,0,1.0238953-0.1952972,1.4144974-0.5858994c0.7807999-0.7812996,0.7802963-2.0478973-0.0009003-2.8290977  l-3.8560028-3.8535004c-0.1669998-0.1669998-0.3588943-0.2901001-0.560997-0.3857994  c4.634697-4.0634003,10.3973999-6.4502029,16.5478058-6.8544998C90.0482941,48.2803001,90,48.5038986,90,48.7402v5.4522018  c0,1.1044998,0.8954926,2,2,2c1.1044922,0,2-0.8955002,2-2V48.7402c0-0.2363014-0.0483093-0.4608994-0.1240005-0.6708984  c6.3661957,0.4179993,12.3197937,2.9580002,17.0350952,7.2861977L92.550293,72.1327972l-8.7162933-7.6093979  c-0.8330002-0.7264977-2.0957031-0.6415977-2.8223038,0.1913986c-0.7261047,0.8320999-0.6406021,2.0957031,0.1913986,2.8223038  l10.0619965,8.7841949c0.3775024,0.3291016,0.8467026,0.4932022,1.315506,0.4932022  c0.4838943,0,0.9676971-0.1748962,1.3490982-0.5234985l19.7353058-18.0331993  c3.7094955,4.5136986,5.8818893,10.0155983,6.2661896,15.8661995C119.720192,74.0487976,119.4960938,74,119.2587967,74h-5.4517059  c-1.1044998,0-2,0.8955002-2,2s0.8955002,2,2,2h5.4517059c0.2367935,0,0.4603958-0.0487976,0.6713943-0.1240005  c-0.4194946,6.3086014-2.9365005,12.0487976-6.8599014,16.5342026  C112.97509,94.2118988,112.8534927,94.0243988,112.6898956,93.8603973z"></path><circle cx="45" cy="100" r="2"></circle></svg>