<svg height='100px' width='100px'  fill="#607088" xmlns="http://www.w3.org/2000/svg" xmlns:xlink="http://www.w3.org/1999/xlink" version="1.1" x="0px" y="0px" viewBox="0 0 52 52" enable-background="new 0 0 52 52" xml:space="preserve"><g><path fill="none" stroke="#607088" stroke-width="2" stroke-miterlimit="10" d="M33.979557,8.0000029H41   c1.1045685,0,2,0.8954306,2,2v37c0,1.1045685-0.8954315,2-2,2H11c-1.1045694,0-2-0.8954315-2-2v-37c0-1.1045694,0.8954306-2,2-2   h6.9996662"></path><polyline fill="none" stroke="#607088" stroke-width="2" stroke-miterlimit="10" points="13,20.0000019 15,22.0000019    21,17.0000019  "></polyline><polyline fill="none" stroke="#607088" stroke-width="2" stroke-miterlimit="10" points="13,30.0000019 15,32.0000038    21,27.0000019  "></polyline><polyline fill="none" stroke="#607088" stroke-width="2" stroke-miterlimit="10" points="13,40.0000038 15,42.0000038    21,37.0000038  "></polyline><line fill="none" stroke="#607088" stroke-width="2" stroke-miterlimit="10" x1="26" y1="18.0000019" x2="39" y2="18.0000019"></line><line fill="none" stroke="#607088" stroke-width="2" stroke-miterlimit="10" x1="26" y1="28.0000019" x2="39" y2="28.0000019"></line><line fill="none" stroke="#607088" stroke-width="2" stroke-miterlimit="10" x1="26" y1="38.0000038" x2="39" y2="38.0000038"></line><line fill="none" stroke="#607088" stroke-width="2" stroke-miterlimit="10" x1="26" y1="22.0000019" x2="39" y2="22.0000019"></line><line fill="none" stroke="#607088" stroke-width="2" stroke-miterlimit="10" x1="26" y1="32.0000038" x2="39" y2="32.0000038"></line><line fill="none" stroke="#607088" stroke-width="2" stroke-miterlimit="10" x1="26" y1="42.0000038" x2="39" y2="42.0000038"></line><path fill="none" stroke="#607088" stroke-width="2" stroke-miterlimit="10" d="M32,4.9999976h-2.8369942   c-0.6047802,0-1.1079216-0.3821712-1.3862343-0.9191079C27.4439373,3.4387665,26.7732296,2.9999974,26,2.9999974   c-0.7731876,0-1.4439125,0.4387691-1.7767601,1.0808923c-0.278326,0.5369377-0.7814732,0.9191079-1.3862591,0.9191079H20   c-1.1045704,0-2,0.8954306-2,2v3.9999995h16V6.9999976C34,5.8954282,33.1045685,4.9999976,32,4.9999976z"></path></g></svg>