<svg height='100px' width='100px'  fill="#607088" xmlns="http://www.w3.org/2000/svg" xmlns:xlink="http://www.w3.org/1999/xlink" version="1.1" x="0px" y="0px" viewBox="0 0 64 64" style="enable-background:new 0 0 64 64;" xml:space="preserve"><g><path d="M63,24c0-4.962-4.038-9-9-9c-0.425,0-0.848,0.035-1.267,0.094C51.348,7.102,44.381,1,36,1   c-8.263,0-15.306,5.973-16.727,14.029C14.649,15.4,11,19.282,11,24c0,1.436,0.349,2.826,0.994,4.086C9.61,29.473,8,32.049,8,35   c0,2.78,1.427,5.231,3.585,6.665C5.462,43.555,1,49.265,1,56v2c0,2.757,2.243,5,5,5h13.791H21.5H31v-7   c0-1.026-0.114-2.039-0.319-3.032C30.789,52.975,30.891,53,31,53h7.98l-0.8,4H37c-2.206,0-4,1.794-4,4v2h20v-2c0-2.206-1.794-4-4-4   h-1.18l-0.8-4H55c2.757,0,5-2.243,5-5V34c0-0.982-0.295-1.892-0.786-2.666C61.574,29.658,63,26.945,63,24z M13,24   c0-3.859,3.139-6.999,7.002-6.999c0,0,0.001,0,0.002,0l1.014,0.024l0.111-0.895C22.062,8.645,28.455,3,36,3c8.271,0,15,6.729,15,15   c0,1.945-0.367,3.838-1.09,5.625l1.854,0.75C52.584,22.349,53,20.204,53,18c0-0.309-0.03-0.61-0.046-0.915   C53.299,17.033,53.648,17,54,17c3.86,0,7,3.14,7,7c0,2.391-1.216,4.576-3.198,5.862C57.002,29.319,56.038,29,55,29H31   c-1.627,0-3.061,0.793-3.974,2h-4.108c-1.386-2.387-3.964-4-6.918-4c-0.747,0-1.468,0.111-2.155,0.303C13.3,26.29,13,25.166,13,24z    M11.7,48.365l-2.082-1.041l-0.47-2.351c0.343-0.214,0.696-0.412,1.06-0.594L11.7,48.365z M11.858,48.788l2.7,7.212h-0.097   l-3.6-4.22L11.858,48.788z M17.442,56l2.7-7.212l0.997,2.992l-3.6,4.22H17.442z M20.3,48.365l1.498-4.001   c0.361,0.18,0.715,0.376,1.058,0.59l-0.474,2.37L20.3,48.365z M20.398,41.675C22.566,40.242,24,37.787,24,35   c0-0.692-0.097-1.359-0.263-2h2.364C26.035,33.323,26,33.658,26,34v10.848C24.374,43.385,22.47,42.308,20.398,41.675z M10,35   c0-3.309,2.691-6,6-6s6,2.691,6,6s-2.691,6-6,6S10,38.309,10,35z M19.94,43.622L16,54.148l-3.943-10.532   C13.302,43.218,14.625,43,16,43C17.36,43,18.682,43.224,19.94,43.622z M19.791,61H6c-1.654,0-3-1.346-3-3v-2   c0-3.857,1.698-7.316,4.374-9.699l0.475,2.375l1.662,0.831L8.606,52.22L11.832,56H6v2h15.5c0.827,0,1.5,0.673,1.5,1.5   S22.327,61,21.5,61H19.791z M29,56v5h-4.351C24.867,60.544,25,60.039,25,59.5c0-1.93-1.57-3.5-3.5-3.5h-1.332l3.226-3.78   l-0.904-2.713l1.662-0.831l0.475-2.377c0.488,0.435,0.949,0.904,1.373,1.417V48c0,1.822,0.99,3.403,2.45,4.277   C28.809,53.481,29,54.73,29,56z M51,61H35c0-1.103,0.897-2,2-2h12C50.103,59,51,59.897,51,61z M40.22,57l1.6-8h2.36l1.6,8H40.22z    M58,48c0,1.654-1.346,3-3,3h-8.38l-0.8-4h-5.64l-0.8,4H31c-1.654,0-3-1.346-3-3V34c0-1.654,1.346-3,3-3h24c1.654,0,3,1.346,3,3V48   z"></path><path d="M25,23h5v4h2v-9.5c0-2.481-2.019-4.5-4.5-4.5S23,15.019,23,17.5V27h2V23z M27.5,15c1.378,0,2.5,1.122,2.5,2.5V21h-5v-3.5   C25,16.122,26.122,15,27.5,15z"></path><path d="M36,21h2c2.206,0,4-1.794,4-4s-1.794-4-4-4h-4v14h2V21z M36,15h2c1.103,0,2,0.897,2,2s-0.897,2-2,2h-2V15z"></path><polygon points="49,25 47,25 47,15 49,15 49,13 43,13 43,15 45,15 45,25 43,25 43,27 49,27  "></polygon><rect x="54" y="47" width="2" height="2"></rect><rect x="54" y="43" width="2" height="2"></rect><rect x="54" y="39" width="2" height="2"></rect></g></svg>