<svg xmlns="http://www.w3.org/2000/svg" viewBox="0 0 100 125" x="0px" y="0px"><title>11-Artificial Intelligence</title><g data-name="Layer 11"><path d="M95,96H54V94H94V80H54V78h8V73H53V71H66V59a1,1,0,0,1,1-1H78V42H75V40h3V25H67v7H65V25H55v7h5v2H54a1,1,0,0,1-1-1V23H78A17.89,17.89,0,0,0,60.16,6H53V4h7.16A19.89,19.89,0,0,1,80,23.87h0A.57.57,0,0,1,80,24V59a1,1,0,0,1-1,1H68V72a1,1,0,0,1-1,1H64v5H95a1,1,0,0,1,1,1V95A1,1,0,0,1,95,96ZM49,96H5.36a1,1,0,0,1-1-1V87.73A9.74,9.74,0,0,1,14.09,78H38.42a3.77,3.77,0,0,0,3.76-3.76l-.12-2.15A24.16,24.16,0,0,1,24.91,50a7.51,7.51,0,0,1-7.24-7.5A7.36,7.36,0,0,1,24,35.06l0-.42a8,8,0,0,1-7-7.94V22.5a8,8,0,0,1,6.92-7.93A12.64,12.64,0,0,1,35.48,7h.7a9.68,9.68,0,0,1,7-3H49a1,1,0,0,1,1,1V95A1,1,0,0,1,49,96ZM6.36,94H48V73.09a24,24,0,0,1-3.91-.48l.09,1.57A5.77,5.77,0,0,1,38.42,80H14.09a7.74,7.74,0,0,0-7.73,7.73ZM36.61,25A10.62,10.62,0,0,0,26,35.61V36a1,1,0,0,1-1,1,5.36,5.36,0,0,0-5.33,5.5,5.5,5.5,0,0,0,5.5,5.5h.72a1,1,0,0,1,1,1A22.14,22.14,0,0,0,48,71.09V66H44a6.81,6.81,0,0,1-6.8-6.81V59a1,1,0,0,1,1-1H48V25Zm2.68,35A4.8,4.8,0,0,0,44,64h4V60ZM23.19,16.77A6,6,0,0,0,19,22.5v4.2a6,6,0,0,0,5.35,6A12.63,12.63,0,0,1,36.61,23H48V6H43.19a7.72,7.72,0,0,0-7.71,7.71h-2A9.61,9.61,0,0,1,34.69,9a10.63,10.63,0,0,0-9.82,10.58h-2A12.75,12.75,0,0,1,23.19,16.77ZM90,91H88V83h2Zm-6,0H82V86H54V84H83a1,1,0,0,1,1,1ZM62,66H55V64h1V60H55V58h7a1,1,0,0,1,1,1v6A1,1,0,0,1,62,66Zm-4-2h3V60H58ZM55,51H53V43h2Zm11-3a7,7,0,1,1,7-7A7,7,0,0,1,66,48Zm-2.6-2.73a5.19,5.19,0,0,0,5.16,0L66,42.7Zm4-4L70,44a5,5,0,0,0,.23-5.55Zm-5.67-2.85a5,5,0,0,0,.23,5.47l2.61-2.62ZM63.05,37,66,39.88l2.94-2.94a5,5,0,0,0-5.86,0ZM38.5,44A2.5,2.5,0,1,1,41,41.5,2.5,2.5,0,0,1,38.5,44Zm0-3a.5.5,0,1,0,.5.5A.5.5,0,0,0,38.5,41ZM72.77,19.81h-2A4.81,4.81,0,0,0,66,15H53V13H66A6.81,6.81,0,0,1,72.77,19.81ZM68,19H65V17h3Zm-6,0H59V17h3Zm-6,0H53V17h3Zm9-9H62V8h3Zm-6,0H56V8h3Z"/></g><text x="0" y="115" fill="#000000" font-size="5px" font-weight="bold" font-family="'Helvetica Neue', Helvetica, Arial-Unicode, Arial, Sans-serif">Created by VINZENCE STUDIO</text><text x="0" y="120" fill="#000000" font-size="5px" font-weight="bold" font-family="'Helvetica Neue', Helvetica, Arial-Unicode, Arial, Sans-serif">from the Noun Project</text></svg>