<svg height='100px' width='100px'  fill="#607088" xmlns="http://www.w3.org/2000/svg" xmlns:xlink="http://www.w3.org/1999/xlink" version="1.1" x="0px" y="0px" viewBox="0 0 64 64" style="enable-background:new 0 0 64 64;" xml:space="preserve"><g><path d="M20,9c-1.075,0-2.22,1.527-3.009,4h6.019C22.22,10.527,21.075,9,20,9z"></path><path d="M28.479,13c-1.246-1.507-2.891-2.665-4.764-3.341c0.553,0.919,1.023,2.046,1.391,3.341H28.479z"></path><path d="M25.557,25h4.218c0.638-1.247,1.032-2.602,1.159-4h-4.962C25.926,22.382,25.789,23.733,25.557,25z"></path><path d="M19,30.576V30c0-1.13,0.391-2.162,1.026-3h-3.035C17.537,28.712,18.253,29.965,19,30.576z"></path><polygon points="49,57 33,57 33,59 27,59 27,61 55,61 55,59 49,59  "></polygon><path d="M23.519,15h-7.038c-0.244,1.209-0.408,2.553-0.46,4h7.958C23.927,17.553,23.763,16.209,23.519,15z"></path><path d="M29.786,15h-4.216c0.225,1.237,0.363,2.581,0.409,4h4.971C30.82,17.57,30.412,16.221,29.786,15z"></path><path d="M7,20c0-7.168,5.832-13,13-13s13,5.832,13,13c0,1.722-0.344,3.423-0.999,5h2.117c0.163-0.46,0.312-0.927,0.43-1.403   l0.132-0.533L37,22.282v-4.563l-2.322-0.782l-0.131-0.533c-0.361-1.463-0.938-2.857-1.718-4.144l-0.284-0.47l1.09-2.196   l-3.228-3.227l-2.196,1.09l-0.47-0.285c-1.288-0.779-2.683-1.357-4.145-1.717l-0.533-0.132L22.281,3h-4.563l-0.782,2.322   l-0.533,0.132c-1.462,0.36-2.856,0.938-4.145,1.717l-0.47,0.285l-2.196-1.09L6.365,9.593l1.09,2.196l-0.284,0.47   c-0.779,1.287-1.356,2.681-1.718,4.144l-0.131,0.533L3,17.718v4.563l2.322,0.782l0.131,0.533c0.361,1.463,0.938,2.857,1.718,4.144   l0.284,0.47l-1.09,2.196l3.228,3.227l2.196-1.09l0.47,0.285c1.288,0.779,2.683,1.357,4.145,1.717l0.533,0.132L17.719,37H19v-4.051   C12.299,32.435,7,26.831,7,20z"></path><path d="M9.051,19h4.971c0.046-1.419,0.184-2.763,0.409-4h-4.216C9.588,16.221,9.18,17.57,9.051,19z"></path><path d="M16.286,9.659c-1.874,0.675-3.518,1.834-4.764,3.341h3.373C15.263,11.705,15.732,10.578,16.286,9.659z"></path><path d="M23.517,25c0.251-1.252,0.406-2.604,0.456-4h-7.952c0.052,1.447,0.217,2.791,0.46,4H23.517z"></path><path d="M16.286,30.341c-0.553-0.919-1.023-2.046-1.391-3.341h-3.373C12.768,28.507,14.412,29.665,16.286,30.341z"></path><path d="M10.214,25h4.216c-0.225-1.237-0.363-2.581-0.409-4H9.051C9.18,22.43,9.588,23.779,10.214,25z"></path><path d="M58,27H24c-1.654,0-3,1.346-3,3v17h40V30C61,28.346,59.654,27,58,27z M38,30h20v6H38V30z M37,39h4v2h-4V39z M24,30h10v6H24   V30z M35,45H23v-2h12V45z M35,41H23v-2h12V41z M59,45H37v-2h22V45z M59,41H44v-2h15V41z"></path><path d="M21,52c0,1.654,1.346,3,3,3h7h20h7c1.654,0,3-1.346,3-3v-3H21V52z M45,51c0.552,0,1,0.448,1,1c0,0.552-0.448,1-1,1   s-1-0.448-1-1C44,51.448,44.448,51,45,51z M41,51c0.552,0,1,0.448,1,1c0,0.552-0.448,1-1,1s-1-0.448-1-1C40,51.448,40.448,51,41,51   z M37,51c0.552,0,1,0.448,1,1c0,0.552-0.448,1-1,1s-1-0.448-1-1C36,51.448,36.448,51,37,51z"></path><path d="M49,8v11.238l-3.231-3.878l-1.537,1.28L50,23.562l5.769-6.922l-1.537-1.28L51,19.238V8c0-1.654-1.346-3-3-3H38v2h10   C48.552,7,49,7.449,49,8z"></path><path d="M9,54V42.762l3.231,3.878l1.537-1.28L8,38.438L2.231,45.36l1.537,1.28L7,42.762V54c0,1.654,1.346,3,3,3h7v-2h-7   C9.448,55,9,54.551,9,54z"></path></g></svg>